<?xml version="1.0" encoding="utf-8"?>
<!-- Generator: Adobe Illustrator 23.1.1, SVG Export Plug-In . SVG Version: 6.00 Build 0)  -->
<svg version="1.1" id="Outlined" xmlns="http://www.w3.org/2000/svg" xmlns:xlink="http://www.w3.org/1999/xlink" x="0px" y="0px"
	 viewBox="0 0 1194 312.4" style="enable-background:new 0 0 1194 312.4;" xml:space="preserve">
<style type="text/css">
	.st0{fill:#9ACB4C;}
	.st1{fill:#DCDB00;}
	.st2{fill:#F29A35;}
</style>
<path class="st0" d="M9.8,162.5c-1.3,0.2-2.5,0.2-3.6,0c-1.2-0.2-2.1-0.6-2.8-1.2c-0.7-0.6-1-1.3-1-2.3c0-1,0.5-2.1,1.4-3.3
	c1.2-1.5,2.7-3,4.7-4.4c0.2-2,0.4-4,0.5-6c0.1-2,0.3-4,0.5-6h1.6c-0.2-3-0.2-5.9-0.1-8.8c0.2-2.9,0.4-5.8,0.6-8.7
	c0.3-2.9,0.5-5.8,0.8-8.6c0.3-2.9,0.3-5.8,0.2-8.7c-0.2-0.2-0.4-0.4-0.6-0.5c-0.2-0.1-0.4-0.3-0.6-0.5c-0.2,6-0.4,11.9-0.7,17.7
	c-0.3,5.8-0.7,11.6-1.2,17.7c0.3-6.1,0.6-12.2,0.7-18.1c0.2-6,0.3-12,0.6-18c-1.3-1.5-1.2-3.1,0.2-4.8c0.2-3.7,0.4-7.4,0.6-11
	c0.2-3.6,0.4-7.4,0.9-11.2c0-0.5,0-1.1,0.1-1.8c0.1-0.7,0.1-1.3,0.2-1.8c0.2-0.5,0.4-1.1,0.6-1.6c0.2-0.5,0.4-1.1,0.6-1.6
	c-0.8,0.1-1.7,0.4-2.7,0.8c0-0.5-0.2-1.1-0.6-1.7c-0.4-0.6-0.7-1.2-0.9-1.8c-0.2-0.6-0.1-1.1,0.2-1.6c0.3-0.5,1.2-0.9,2.5-1.2
	c-0.2-0.6-0.4-1.2-0.6-1.6c-0.3,0-0.6,0-0.9-0.1c-0.3-0.1-0.5-0.1-0.7-0.1c-2.5-0.4-4.4-1.5-5.5-3.2c-1.1-1.7-0.6-3.5,1.5-5.1
	c2.7-1.9,6.1-3.4,10-4.4c3.9-1,7.7-2.3,11.4-3.9c2.6-1.2,5.3-2.2,8.1-3c2.7-0.8,5.5-1.4,8.4-1.7c4-0.4,8-1,12.1-1.8
	c4.1-0.8,8.1-1.1,12.1-0.9c0.7,0,1.6-0.1,2.5-0.4c0.9-0.3,1.8-0.5,2.7-0.6c0.9-0.2,1.7-0.3,2.4-0.4c0.7-0.1,1.2,0,1.7,0.3
	c0.5,0.2,0.9,0.5,1,1c0.2,0.4,0.2,0.9,0.2,1.4c-2.3,0.2-4.6,0.5-6.8,0.9c-2.2,0.4-4.5,0.7-6.8,1c-2.7,0.3-5.5,0.6-8.4,0.9
	c-2.8,0.3-5.7,0.6-8.5,1c5.5-0.3,11.1-1,16.9-1.9c2.3-0.2,4.6-0.4,6.8-0.6c2.2-0.2,4.5-0.3,6.8-0.6c0,0.5,0,1,0,1.4
	c0,0.4,0.1,0.8,0.3,1.3c0.2,0,0.5-0.1,0.8-0.2c0.2,0,0.4,0,0.7-0.1c0.3-0.1,0.5-0.1,0.7-0.1c0.3,0.1,0.7,0.4,1.1,0.8
	c0.8,0.8,1.3,1.8,1.3,3c0,1.2-0.3,2.3-0.8,3.3c-0.2,0.5-0.5,1-0.9,1.4h-1c-3.2-0.2-6.3-0.1-9.3,0.5c-3.1,0.5-6.3,0.9-9.8,1.1
	c-2.4,0.1-4.9,0.5-7.4,1.2c-2.5,0.7-5,1.3-7.3,1.8c5.7-1.1,11.4-2,17-2.9c5.6-0.9,11.3-1,17-0.4c-0.5,0.5-1.1,1-1.6,1.5
	c-0.5,0.5-1.2,0.8-2.1,0.9c-1.8,0.1-3.6,0.3-5.4,0.5c-1.8,0.2-3.6,0.4-5.4,0.6c0-0.5-0.1-1.1-0.3-1.7c-2.4,0.8-4.9,1.5-7.3,1.8
	c-2.4,0.4-4.8,0.7-7.3,1.1c-2.4,0.4-4.9,0.8-7.3,1.4c-2.4,0.6-4.8,1.5-7.1,2.8c0.2,0.1,0.3,0.4,0.3,0.8c4.8-1.6,9.5-2.9,14.1-3.9
	c4.6-1,9.5-1.8,14.6-2.3c-6,0.8-11.8,2-17.4,3.6c-5.6,1.5-11.2,3.3-16.9,5.1c0.1,0.2,0.2,0.6,0.2,1.1c0.3,3.6,0.2,7.5-0.4,11.7
	c-0.6,4.2-1,8.6-1.2,13c2.3-0.7,4.6-1.3,6.9-1.8c2.3-0.5,4.6-0.7,6.9-0.6c3.3,0.2,6.5,0.2,9.7-0.2c3.2-0.3,6.4-0.3,9.4,0
	c0.6,0,1.3-0.1,2-0.2c0.7-0.2,1.3-0.3,2-0.6c0.6-0.2,1.2-0.3,1.7-0.4c0.5-0.1,0.9,0,1.3,0.2c0.6,0.4,1.1,1.2,1.3,2.4
	c-1.8,0.3-3.6,0.6-5.3,0.9c-1.7,0.3-3.5,0.5-5.3,0.7c-4.4,0.3-9,0.3-13.6,0c2.3,0.3,4.6,0.5,6.9,0.4c2.3-0.1,4.5-0.2,6.7-0.4
	c1.8-0.1,3.6-0.2,5.3-0.3c1.7-0.1,3.5-0.3,5.3-0.5c0.1,0.5,0.2,1,0.2,1.3c0.1,0.4,0.2,0.8,0.4,1.2c0.2-0.1,0.4-0.2,0.6-0.2
	c0.4,0,0.7-0.1,1-0.2c0.3,0.1,0.7,0.4,1.1,0.8c0.8,0.8,1.3,1.8,1.5,2.9c0.2,1.1,0.1,2.1-0.1,3.2c-0.2,0.2-0.4,0.5-0.4,0.8
	c-0.1,0.3-0.2,0.6-0.4,1l-0.8-0.2c-2.8,0.1-5.6,0.4-8.2,0.8c-2.6,0.4-5.4,0.6-8.4,0.5c-2.1-0.1-4.2,0-6.3,0.4
	c-2.1,0.4-4.1,0.7-6,0.9c4.6-0.2,9.4-0.5,14.3-1c4.9-0.4,9.8-0.5,14.9-0.3c-0.7,1.5-1.7,2.4-3,2.7c-1.7,0.1-3.3,0.2-4.9,0.3
	c-1.6,0.1-3.2,0.3-4.7,0.5c0-0.5-0.1-1.1-0.3-1.7c-2.1,0.6-4.2,1-6.3,1.2c-2.1,0.2-4.1,0.3-6.2,0.3c-2.1,0.1-4.1,0.2-6.1,0.4
	c-2,0.2-4,0.8-5.9,1.7c0.2,0.1,0.3,0.4,0.3,0.8c3.8-0.9,7.7-1.6,11.6-1.9c3.9-0.3,8.1-0.6,12.5-0.8c-5.9,0.5-11.5,1.2-16.8,2
	c-5.3,0.8-10.4,1.9-15.2,3.4c-0.1,0.8-0.2,1.7-0.2,2.5c0,0.8-0.1,1.6-0.2,2.5c-0.7,4.3-1.2,8.7-1.4,13.2c-0.2,4.5-0.6,8.9-1.3,13.4
	c3-1.4,5.9-2.5,8.9-3.5c3-1,6.1-1.6,9.3-1.9c4.4-0.3,8.9-0.7,13.5-1.3c4.5-0.5,9-0.5,13.3,0c0.7,0,1.6-0.1,2.6-0.2
	c1-0.1,2-0.2,2.9-0.3c0.9-0.1,1.8-0.2,2.7-0.2c0.8-0.1,1.5,0.1,1.9,0.4c0.5,0.3,0.8,0.7,0.9,1.1c0.1,0.4,0.2,0.9,0.2,1.4
	c-2.5,0.1-5,0.2-7.5,0.3c-2.5,0.1-5,0.3-7.5,0.5c-3.1,0-6.1,0.1-9.2,0.2c-3.1,0.2-6.2,0.3-9.3,0.6c3.1,0,6.2-0.1,9.3-0.2
	c3.1-0.2,6.2-0.3,9.3-0.6c5.1-0.1,10-0.1,14.9,0c-0.1,0.5-0.2,1-0.2,1.4c-0.1,0.4,0,0.8,0.2,1.3h0.9c0.2,0,0.4,0,0.7-0.1
	c0.3-0.1,0.5-0.1,0.7-0.1c0.3,0.2,0.7,0.5,1.1,0.9c0.8,1,1.2,2,1,3.2c-0.2,1.2-0.6,2.2-1.2,3.2c-0.4,0.6-0.8,1.1-1.1,1.4l-1.1-0.2
	c-3.4-0.5-6.7-0.7-10.1-0.5c-3.3,0.2-6.8,0.4-10.5,0.5c-2.6-0.1-5.3,0.1-8.1,0.6c-2.8,0.5-5.3,1.1-7.8,1.7c6-1.1,12.1-1.8,18.2-2.2
	c6.1-0.4,12.2-0.1,18.2,1.1c-1.3,1.3-2.6,2-4.1,2.1c-3.9-0.1-7.8-0.1-11.6,0c0-0.2,0-0.5-0.1-0.8c-0.1-0.3-0.1-0.6-0.1-0.8
	c-2.7,0.5-5.4,0.9-8,1.2c-2.6,0.3-5.1,0.5-7.7,0.7c-2.6,0.3-5.2,0.8-7.7,1.3c-2.5,0.6-4.9,1.6-7.4,2.9c0.2,0.1,0.3,0.4,0.3,0.8
	c4.9-1.8,9.7-3.1,14.6-3.8c4.9-0.7,10.1-1.2,15.4-1.4c-16.6,1-31.7,5.2-45.3,12.8c-0.2,0.2-0.6,0.4-1.1,0.7
	c-0.5,0.3-0.9,0.5-1.1,0.7c-2.7,0.3-5.3,1.4-7.6,3.2c-0.2-0.5-0.6-1-1.1-1.5c-0.5-0.5-1-1-1.4-1.5c-0.4-0.5-0.4-1.1-0.2-1.7
	c0.2-0.6,1-1.2,2.2-1.8c-0.2-0.2-0.4-0.4-0.6-0.7c-0.2-0.3-0.3-0.5-0.4-0.7c-0.3,0.1-0.6,0.2-0.9,0.2
	C10.4,162.4,10.1,162.5,9.8,162.5z M14.4,113.5c-0.5,6-0.9,12-1.1,18c-0.2,6-0.7,11.9-1.6,17.8c0.2-0.1,0.3-0.2,0.4-0.2
	c0.1-0.1,0.2-0.1,0.4-0.2c0.2-2.4,0.4-4.9,0.5-7.4c0.1-2.5,0.3-5.1,0.5-7.8c0.5-3.2,0.8-6.5,0.8-10.1
	C14.2,120.1,14.3,116.7,14.4,113.5z M23.9,140.9c0,0.4,0,0.8-0.1,1.2c-0.1,0.4-0.1,0.8-0.1,1.2C23.8,142.8,23.9,142,23.9,140.9
	c0.3-3.6,0.7-7.2,1-10.8c0.4-3.6,0.8-7.2,1.3-10.8c-0.7,3.5-1.3,7-1.6,10.6C24.4,133.6,24.1,137.2,23.9,140.9z"/>
<path class="st1" d="M101,145.8c-1.2-3.2-2.1-6.4-2.9-9.6c-0.8-3.2-1.6-6.4-2.3-9.4c-0.2-0.7-0.4-1.5-0.5-2.2
	c-0.1-0.7-0.2-1.5-0.3-2.2c-0.2-1.2-0.4-2.2-0.5-3c-0.1-0.8-0.2-1.7-0.3-2.7c-0.1-3.4-0.1-6.8,0-10.3c0.4-6.6,1.3-13.2,2.7-19.7
	c1.4-6.5,3.5-13,6.3-19.4c1.5-3.1,3.2-6.2,5.2-9.3c2-3.1,4.4-6,7.3-8.8c3.1-2.7,6.4-5.1,10.1-7.1c1.8-0.8,3.8-1.6,6.1-2.3
	c2.3-0.7,4.7-1,7.4-0.9c0.8,0,1.9,0.1,3.2,0.2c1.3,0.2,2.5,0.5,3.8,1c1.3,0.3,2.4,0.7,3.5,1.3c1.1,0.5,2,1,2.7,1.4
	c2.5,2.1,4.6,4.3,6.2,6.5c1.6,2.2,3,4.4,4.3,6.5c1.3,2.1,2.4,4.2,3.5,6.3c1.1,2.1,2.1,4.2,3,6.2c-0.7-0.3-1.3-0.1-1.8,0.6
	c-0.5,0.7-1,1.2-1.7,1.3c-0.6,0.2-1.4-0.3-2.2-1.5c-0.8-1.2-2.3-3.8-4.4-7.8c-0.4,0.4-1,0.7-1.6,0.9c0.3,0.8,0.6,1.6,0.9,2.2
	c0.3,0.6,0.5,1.3,0.7,1.9c1.1,3.1,1.6,5.7,1.7,7.9c0.1,2.2-0.1,3.8-0.5,4.8c-0.5,1.2-1.5,1.2-3,0.2c-1.5-1.1-3.3-3.3-5.4-6.8
	c-1.2-1.8-2.4-3.6-3.6-5.5c-1.3-1.8-2.6-3.5-4-4.8c-1.4-1.4-2.6-2.3-3.6-2.8c-0.5-0.2-1-0.3-1.4-0.4c-0.4-0.1-1,0-1.6,0.1
	c-0.5,0.1-1.3,0.3-2.2,0.6c-0.9,0.3-1.8,0.7-2.7,1.2c-0.8,0.5-1.7,1.1-2.5,1.7c-0.8,0.6-1.6,1.4-2.5,2.2c-1.6,1.7-3,3.6-4.3,5.7
	c-1.3,2.1-2.4,4.3-3.3,6.6c-1.5,3.5-2.7,7.1-3.6,10.9c-0.9,3.8-1.6,7.6-2.1,11.4c-0.2,2-0.4,4-0.6,5.9c-0.2,2-0.4,3.8-0.5,5.6
	c0,0.8,0,1.7,0.1,2.7c0.1,0.9,0,1.9-0.1,2.8c0.2,0.5,0.3,1,0.2,1.3c-0.1,0.4,0,0.8,0.1,1.2v0.2v-0.3v0.2l0.2,0.3v1l0.2,1.4
	c0.5,2.9,1.1,5.6,1.6,8.4c0.5,2.7,1.2,5.4,2.1,7.9c0.7,2.6,1.7,5.1,2.8,7.3c1.1,2.2,2.3,4,3.6,5.4c1.3,1.2,2.5,2,3.6,2.4
	c0.5,0.1,1.2,0.2,2.1,0.2c0.8,0,1.7-0.2,2.7-0.6c2-0.5,4.1-1.4,6.3-2.8c2.2-1.3,4.4-2.8,6.5-4.5c1.6-1.2,3.3-2.7,5.1-4.6
	c1.8-1.9,3.6-3.8,5.1-5.9c1.7-1.9,3.2-3.7,4.6-5.3c1.4-1.6,2.5-2.8,3.3-3.4c1.2-1.1,2-1.6,2.5-1.5c0.5,0.1,0.9,0.3,1.1,0.9
	c-4.1,5.6-8.5,10.8-13.3,15.7c-2.4,2.4-4.9,4.7-7.4,6.9c-2.5,2.2-5.1,4-7.8,5.6c-3.5,1.9-6.7,2.8-9.7,2.8c-2.7-0.1-5.2-1.4-7.4-4
	c-2.2-2.4-4-5.5-5.2-9.1c-1.3-3.6-2.3-7.4-3.2-11.3c0.6,3.8,1.6,7.6,2.9,11.2c1.3,3.7,3,6.8,5.1,9.3c2.3,2.5,4.9,3.9,7.6,4
	c2.8,0,6.1-1,9.8-3c2.7-1.5,5.4-3.3,7.9-5.5c2.5-2.2,5-4.4,7.4-6.6c4.6-4.6,9.2-9.8,13.6-15.4c0.2,0.5,0.5,1,0.7,1.3
	c0.3,0.4,0.7,0.5,1.2,0.4c0.5-0.6,1-1.3,1.4-1.9c0.4-0.5,0.8-1.1,1.2-1.7c0.4-0.6,0.7-1.1,1-1.7c0.5-0.5,1-1,1.4-1.3
	c0.4-0.4,0.8-0.7,1.3-0.9c2.1-1.5,3.5-1.7,4.1-0.6c0.6,1.1,0.8,2.7,0.5,4.8c-0.2,0.5-0.3,1.1-0.4,1.8c0,0.7-0.2,1.4-0.4,2.1
	c-0.5,0.4-1,0.8-1.3,1.3c-0.3,0.4-0.6,0.9-1,1.4c-3.3,4-6.6,7.9-10,11.6c-3.4,3.7-7,7.3-10.9,10.9c-2,1.8-4.1,3.5-6.3,5.1
	c-2.2,1.6-4.6,3.2-7.4,4.7c-2.6,1.5-5.6,2.6-8.9,3.3c-1.7,0.3-3.4,0.4-5.2,0.4c-1.8-0.1-3.6-0.3-5.4-0.9c-2.6-0.8-4.9-2.1-6.9-3.7
	c-2-1.6-3.6-3.4-5-5.1c-1.5-2-2.7-4-3.7-5.9c-1-1.9-1.9-3.9-2.8-5.9c-1.6-4.1-2.9-8.2-3.8-12.2c-1-4-1.9-7.9-2.7-11.6
	c0.8,4.4,1.8,8.9,2.8,13.5c1.1,4.6,2.6,9.2,4.6,13.9c1.1,2.2,2.3,4.5,3.8,6.7c1.5,2.3,3.3,4.4,5.4,6.2c2.5,2.2,5.3,3.7,8.4,4.4
	c3.2,0.9,6.2,1.1,9.2,0.5c3.1-0.4,5.8-1.2,8.2-2.4c2.4-1.2,4.7-2.4,6.8-3.8c4.1-2.9,7.9-5.9,11.4-9c3.5-3.1,6.8-6.3,10-9.7
	c3.2-3.4,6.2-6.8,9.2-10.3c-0.6,1.8-1.5,3.7-2.5,5.6c-1.1,2-2.4,3.9-4.1,5.9c-2.1,2.3-4.3,4.6-6.4,6.7c-2.2,2.2-4.5,4.3-6.9,6.4
	c-2.3,2.1-4.8,4.1-7.5,6.1c-2.7,2-5.7,3.7-9.1,5.3c0-0.2-0.1-0.5-0.2-0.9c-0.2-0.4-0.3-0.7-0.4-0.9c-2.2,1.2-4.7,2.1-7.5,2.8
	c-2.8,0.7-5.8,0.7-8.9,0.1c-3.2-0.5-6-1.7-8.5-3.4c-2.5-1.7-4.5-3.6-6.1-5.5c-1.7-2-3.1-4-4.1-6.1c-1.1-2.1-2-4.1-2.9-6.3
	c-0.8-2-1.6-4-2.1-6.1c-0.6-2.1-1.1-4.1-1.7-6.1c-0.5-2.1-1-4.1-1.3-6.1c-0.4-1.9-0.8-3.9-1.2-5.9c-0.4-2.2-0.7-4.4-0.8-6.6
	c-0.1-2.2-0.1-4.4,0-6.7c0-4.3,0.2-8.5,0.6-12.7c0.4-4.1,1-8.3,1.9-12.7c-0.2,0.5-0.4,0.7-0.6,0.6c-0.2-0.2-0.3-0.3-0.4-0.6
	c-0.9,4.2-1.7,8.4-2.2,12.6c-0.5,4.2-0.8,8.4-1,12.7c0,2.1,0.1,4.3,0.2,6.5c0.1,2.2,0.4,4.4,1,6.7c0.3,2,0.7,4,1.1,5.9
	c0.4,2,0.9,3.9,1.4,5.9c1.1,4,2.3,8.1,3.8,12.2c1.5,4.1,3.7,8.2,6.7,12.4c1.6,2,3.6,4,5.9,5.9c2.4,1.9,5.1,3.3,8.3,4.1
	c3.1,0.8,6,1.1,8.8,0.8c2.8-0.3,5.4-1,7.8-1.9c-1.8,0.7-3.7,1.3-5.8,1.7c-2.1,0.4-4.3,0.4-6.7,0.2c-2.4-0.2-4.8-0.8-7.2-1.8
	c-2.4-1-4.5-2.2-6.3-3.7c-1.8-1.5-3.3-3-4.6-4.6c-1.3-1.6-2.4-3.2-3.5-4.9C103.7,152.3,102.2,149,101,145.8z"/>
<path class="st2" d="M189.7,123.4c-0.1-0.5-0.2-1.1-0.2-1.7c-0.1-0.6-0.1-1.2-0.1-1.8c-0.2-2.3-0.3-4.6-0.4-6.9
	c-0.1-2.3,0-4.6,0.1-6.9c0.3-4.7,0.9-9.4,1.8-14c0.9-4.6,2.3-9.3,4.2-14c0.3-0.7,0.7-1.7,1.3-2.8c0.5-1.1,1.1-2.2,1.7-3.3
	c0.6-1.1,1.3-2.2,1.9-3.2c0.6-1.1,1.2-2,1.7-2.7c4.6-5.5,10.1-9.9,16.5-13.3c1.5-0.8,3-1.6,4.5-2.2c1.5-0.6,3-1.2,4.5-1.7
	c0.4-0.2,0.8-0.4,1.1-0.5c0.3-0.1,0.7-0.3,1.3-0.5c1.4-0.4,3.1-0.9,5.2-1.4c0.2,0,0.4,0,0.7,0.1c0.3,0.1,0.5,0.1,0.7,0.1
	c0.3-0.1,0.8-0.2,1.4-0.2c-0.2,0-0.3,0.1-0.3,0.3c0.3,0,0.6,0,1,0.1c0.3,0.1,0.6,0.1,0.9,0.1c7.2,0.6,14.1,2,20.9,4
	c3.5,1.2,6.9,2.6,10.3,4.2c3.4,1.6,6.6,3.7,9.7,6.1c3.1,2.5,5.8,5.5,8.1,8.8c2.3,3.3,4.2,6.8,5.5,10.5c2.6,7.4,3.7,15.2,3.2,23.4
	c-0.4,5.6-1.5,11.2-3.3,16.8c-1.8,5.6-4.2,10.9-7.3,16c-3.2,5.1-6.9,9.6-11.3,13.6c-4.4,4-9.3,7.1-14.6,9.3
	c6.3-2.5,12-6.2,16.9-10.9c4.9-4.7,8.9-10.1,12-16.1c3.2-5.9,5.5-12.2,6.9-18.8c1.4-6.7,1.7-13.4,0.9-20.3c-0.4-3.4-1.1-6.7-2-10.1
	c-0.9-3.4-2.2-6.6-4-9.7c-1.7-3.2-3.7-6.1-6.2-8.7c-2.4-2.6-5.1-5-8.1-7c-5.8-4-11.9-6.9-18.3-8.6c-6.4-1.7-12.6-3-18.8-3.7
	c2.5-0.4,5.3-0.6,8.4-0.6c3.1,0.1,6.4,0.5,10.1,1.3c4.4,1.2,8.8,2.7,13.1,4.7c4.3,2,8.3,4.6,12,7.8c3.7,3.2,6.8,6.9,9.4,11.1
	c2.6,4.2,4.5,8.5,5.6,13c-0.2,0.1-0.5,0.2-0.8,0.3c-0.3,0.1-0.6,0.2-0.8,0.2c2,6.1,3,12.3,2.9,18.4c-0.1,6.2-0.9,12.2-2.6,18
	c-1.7,5.8-4.1,11.3-7.2,16.5c-3.1,5.2-6.9,9.8-11.3,13.9c-4.3,4.1-9.3,7.5-14.9,10.3c-1.5,0.6-2.9,1.2-4.3,1.7
	c-1.4,0.5-2.8,1.1-4.4,1.6c-3.2,0.8-6.3,1.3-9.3,1.4c-6.2,0.4-12.4-0.2-18.4-2c-6.1-1.7-11.8-4.5-17.2-8.2c0.7,0.6,1,1,0.6,1
	c-0.3,0-0.6,0-0.8,0c5.3,3.8,11,6.6,17,8.5c6.1,1.9,12.3,2.6,18.6,2.1c3.3-0.2,6.4-0.7,9.4-1.4c1.7-0.5,3.2-1.1,4.7-1.6
	c1.4-0.5,2.9-1.1,4.4-1.7c5.5-2.6,10.5-6.1,15-10.3c4.4-4.2,8.2-8.9,11.3-14c3.1-5.1,5.6-10.5,7.4-16.2c1.8-5.7,2.8-11.6,3.2-17.8
	c0.3-6.2-0.3-12.4-1.7-18.6c2.3,9.6,2.5,19.2,0.6,28.8c-0.8,4.8-2.1,9.3-3.9,13.7c-1.7,4.4-3.9,8.6-6.6,12.6
	c-2.6,4-5.7,7.7-9.1,11.1c-3.4,3.4-7.3,6.3-11.5,8.9c-2.1,1.3-4.3,2.4-6.5,3.3c-2.2,1-4.6,1.8-7.3,2.5c-4.8,1.3-9.7,1.8-14.9,1.6
	c-10.2-0.5-19.6-3.6-28.2-9.2c-4.1-2.7-7.8-6.1-11.2-10.1c-3.3-4-5.9-8.4-7.8-13.3c-0.5-1.3-1-2.5-1.3-3.8c-0.4-1.3-0.7-2.5-0.9-3.8
	c-0.2-0.6-0.3-1.3-0.4-1.9C189.9,124.8,189.8,124.1,189.7,123.4z M208.4,109.4c-0.1,3.8,0.1,7.5,0.5,11.1c0.3,3.2,1.1,6,2.4,8.6
	c1.8,4,4.4,7.4,7.9,10.3c3.5,2.9,7.4,5,11.7,6.5c4.3,1.5,8.7,2.1,13.1,1.9c1.2-0.1,2.3-0.2,3.4-0.4c1.1-0.2,2.1-0.3,2.9-0.6
	c1.2-0.2,2.2-0.5,3.2-0.9c1-0.4,2-0.8,3.1-1.3c3-1.3,5.7-3,8.3-5.2c2.6-2.2,4.9-4.7,7-7.5c2.1-2.8,3.9-5.8,5.5-9.1
	c1.5-3.3,2.7-6.7,3.6-10.1c0.8-3.5,1.3-7,1.4-10.5c0.1-3.5-0.1-7-0.6-10.5c-1.3-7.2-4-13.1-8.2-17.7c-1.6-1.8-3.8-3.5-6.6-5
	c-2.8-1.5-5.7-2.7-8.8-3.6c-3.1-1-6-1.7-8.7-2.1c-2.7-0.5-4.8-1-6.2-1.5h-0.2c-0.9,0.3-2.1,0.7-3.3,1.1c-1.3,0.4-2.7,0.9-4.4,1.6
	c-2.4,0.8-4.8,2-7.1,3.3c-2.3,1.4-4.5,3.1-6.6,5.1c-4,4-7.2,9.3-9.5,15.8c-1.2,3.2-2.1,6.5-2.7,10.1
	C208.8,102.1,208.5,105.7,208.4,109.4z M229,54.3c-0.7,0.2-1.5,0.5-2.4,0.8c-0.8,0.3-1.7,0.7-2.7,1.3c0.1,0.2,0.2,0.5,0.3,0.7
	c0.1,0.3,0.3,0.5,0.5,0.7c0.9-0.3,1.9-0.6,2.9-0.9c1-0.3,1.9-0.5,2.8-0.7c1.7-0.3,3.2-0.5,4.7-0.6c1.4-0.1,2.7,0,3.9,0.1
	c0.7,0,1.6,0.1,2.7,0.3c0-0.2-0.2-0.4-0.5-0.6c-0.7,0-1.5-0.1-2.4-0.2c-0.7,0-1.5,0-2.3-0.1c-0.8,0-1.6-0.1-2.3-0.1h-1.6
	c-0.7-0.2-1.4-0.3-2-0.4C230,54.7,229.5,54.5,229,54.3z M246.9,58.7c0,0.3-0.1,0.6-0.2,0.8c3.4,0.5,6.7,1.2,10,2.1
	c3.3,0.9,6.4,2.1,9.4,3.6c8,3.9,13.7,9.9,16.9,17.9c1.9,5,2.9,10.1,3,15.4c0.1,5.3-0.5,10.5-1.9,15.5c-1.4,5.1-3.4,9.9-6.2,14.4
	c-2.7,4.5-6,8.5-9.8,11.9c3.8-3.3,7.1-7.1,9.8-11.6c2.7-4.4,4.9-9.2,6.3-14.4c1.5-5.1,2.1-10.3,1.9-15.7c-0.2-2.7-0.6-5.4-1-8
	c-0.5-2.6-1.2-5.1-2.1-7.5c-1.5-4-3.6-7.5-6.5-10.5c-2.8-3-6.2-5.6-10.1-7.7c-3-1.6-6.1-2.8-9.3-3.8
	C253.7,60.2,250.3,59.4,246.9,58.7z"/>
<g>
	<path d="M475.7,159.2h-12.2l-11.8-26.7h-54.9l-12,26.7h-11.7l46-101.5h10.6L475.7,159.2z M424.3,70.9l-23,51.4h45.9L424.3,70.9z"/>
	<path d="M539.8,160.9c-29.1,0-50.6-22.9-50.6-52c0-28.8,21.3-52.3,51-52.3c18.3,0,29.2,6.5,39.3,16l-7.8,8.3
		c-8.5-8.1-18-13.8-31.7-13.8c-22.3,0-39,18-39,41.5c0,23.5,16.8,41.8,39,41.8c13.8,0,22.9-5.3,32.6-14.5l7.5,7.3
		C569.6,153.8,558.1,160.9,539.8,160.9z"/>
	<path d="M704,159.2h-12.2l-11.8-26.7h-54.9l-12,26.7h-11.7l46-101.5h10.7L704,159.2z M652.6,70.9l-23,51.4h45.9L652.6,70.9z"/>
	<path d="M769,159.2h-35V58.3h35c31.7,0,53.6,21.7,53.6,50.2C822.6,137.1,800.7,159.2,769,159.2z M769,68.8h-23.6v79.8H769
		c25.5,0,41.8-17.3,41.8-39.7C810.7,86.4,794.5,68.8,769,68.8z"/>
	<path d="M934.3,68.7h-61.5v34.4h55v10.4h-55v35.3H935v10.4h-73.6V58.3h72.9V68.7z"/>
	<path d="M1016.5,131.5h-0.6l-36.7-53.9v81.5h-11.1V58.3h11.5l36.7,55l36.7-55h11.5v100.8h-11.4V77.5L1016.5,131.5z"/>
	<path d="M1151,159.2h-11.5v-39.9l-41.9-60.9h13.8l34,50.4l34.3-50.4h13.2l-41.9,60.8V159.2z"/>
</g>
<g>
	<path d="M336.8,70.1c-1.7-5.1-8-10.8-12.1-14c-0.9,3.2-4.2,8.9,3.3,25.7c0,0-0.3-0.3-0.8-0.8c0.3,0.4,0.5,0.6,0.5,0.6
		s-0.3-0.3-0.9-0.9c-0.1-0.2-0.3-0.3-0.5-0.5c-0.2-0.2-0.3-0.4-0.5-0.6c-0.2-0.2-0.4-0.5-0.6-0.7c-0.2-0.3-0.4-0.5-0.6-0.8
		c-0.2-0.3-0.4-0.6-0.6-0.9c-0.2-0.3-0.4-0.7-0.6-1c-0.4-0.7-0.8-1.5-1.1-2.3c-0.1-0.2-0.2-0.4-0.3-0.6c-0.1-0.2-0.2-0.4-0.2-0.6
		c-0.2-0.4-0.3-0.9-0.4-1.3c-0.2-0.9-0.5-1.8-0.6-2.8c-0.2-0.9-0.3-1.9-0.3-2.8c-0.1-0.9-0.1-1.9,0-2.8c0-0.9,0.1-1.8,0.2-2.6
		c0.1-0.8,0.3-1.6,0.4-2.3c0.2-0.7,0.4-1.4,0.5-1.9c0.2-0.5,0.3-1,0.5-1.4c1-1.7,2.3-3.8,3.8-5.8l-1.4-1.1c-3.6,4.5-6.6,9.3-6.7,9.5
		l-0.3,0.5c-2.1,3.9-3.3,10-1,16.7c3.7,11,17.9,17.2,19.5,17.5C332.6,87,339.3,77.8,336.8,70.1z"/>
	<path d="M344.8,50.5l-56.1-46c-1.3-1.1-3.7-1.9-5.4-2l-87-1.1c-1.7,0-1.9,0.7-0.4,1.5l2.5,1.5c0.2,0,0.4,0,0.7,0
		c3.7-0.1,7.3-0.1,10.9-0.2c3.6-0.1,7.3-0.1,10.9,0.1c3.7,0.1,7.2,0.5,10.8,1.2c-0.3,0.1-0.4,0.4-0.4,0.7C224,5.6,217,5.3,210,5.2
		c-3.4-0.1-6.9,0-10.4,0l25.2,15.1c1.2,0.7,1.8,2.1,1.6,3.4c2.1-0.5,4.4-1.1,6.7-1.8c2.2-0.6,4.5-0.9,6.9-0.9
		c2.4,0.1,4.6,0.2,6.8,0.3c-5.2-0.1-10.4,1.5-15.6,2.5c-1.7,0.3-3.3-0.4-4.9,0.1c-0.1,0.2-0.1,0.4-0.2,0.6l-5.9,12.5
		c-0.7,1.5-0.1,2.1,1.4,1.4c0,0,51.1-25,82.5,23.7c0,0,1.5,2.7,1.6-0.2l1.6-10.1c0.1-0.7,0.4-1.3,0.9-1.8c-1.9-4.3-4.8-8.2-8.5-11.4
		c-4.1-3.6-8.9-6.6-14.2-9.1l0.4-1c2.5,1,4.9,2,7.1,3.1c2.4,1.2,4.5,2.7,6.2,4.5c2.3,2.4,4.4,4.6,6.5,6.7c1.7,1.7,3.1,3.7,4.3,5.8
		c0.2-0.1,0.5-0.2,0.7-0.2c0,0,5.6-0.7,33.4,3.5C344.2,52.1,348.2,53.4,344.8,50.5z M327.7,43.1c-0.1,0-0.1,0-0.2,0
		c-0.1,0-0.3,0-0.4,0.3l-0.2,0.3l-0.2-0.2c-6.6-6.2-13.3-12.1-20.1-17.7c-6.7-5.6-14-11.3-21.7-16.9l-0.7-0.5l0.1-0.2
		c0.1-0.2,0.3-0.4,0.6-0.6l-0.3-0.2c0.3-0.4,0.8-0.8,1.5-1.1c3.4,3.2,6.9,6.2,10.5,9c3.6,2.8,7.3,5.6,10.9,8.4
		c3.6,2.8,7.2,5.7,10.7,8.7c3.5,3,6.8,6.2,9.7,9.7c-0.2-0.1-0.4-0.1-0.5,0c0.2,0.3,0.5,0.5,0.7,0.8l0.6,0.7L327.7,43.1z"/>
</g>
<g>
	<rect x="7.8" y="206" width="1185.1" height="1.3"/>
</g>
<g>
	<g>
		<path d="M316.5,262.2l22.8,0.3c0.2,0,0.4-0.2,0.4-0.4l-0.1-34.6c0,0,0-0.1,0-0.1h-45.3v34.8h21.5c0,0,0,0,0,0l0.5,0L316.5,262.2
			L316.5,262.2z M376.5,310.3l-1,0.1c-0.2,0-0.6-0.1-0.7-0.2l-1.3-0.1c-0.2-0.1-0.5-0.7-0.7-0.7l-0.9-0.3c-0.2,0-0.7,0.1-0.9,0
			l-1.6-1c-0.2-0.1-0.3-0.1-0.5-0.3l-0.9,0.1l-0.8-0.8l-0.5-1.4c-0.1-0.2-0.4-0.9-0.5-1.2l-0.7-0.7l-0.6-1.2l-0.2-1.7l-0.7-0.4
			l0.3-0.6l0.2-0.8c-0.1-0.2-0.2-0.6-0.3-0.7l-1.6-0.6c-0.2-0.1-0.7-0.2-0.9-0.4L361,295c-0.1-0.2-0.6,0-0.8-0.2l-0.2-1.4l-0.7-0.3
			l-0.4-0.4c-0.1-0.1-0.6-0.3-0.6-0.5l-0.2-1.8l-0.7-1.2l-1.1-1.3l-0.2-1.8c-0.1-0.2-0.7-0.4-0.8-0.6l-0.5-0.7
			c-0.4-0.3-0.4,0.3-0.6,0.1l-0.2-0.4c-0.1-0.2-0.4-0.9-0.6-1l-1.4-0.8l-0.1-0.5c-0.1-0.1-0.3,0-0.4-0.2c0-0.1-0.1-0.2-0.1-0.2
			l-0.7-1c-0.1-0.2-0.9-0.1-1.1-0.1l-0.9,0.1l-0.2-0.2l-0.5-0.2l-1.4,0.2l-0.7-0.5c-0.2,0-0.7-0.2-0.9-0.3l-0.8,0.9
			c-0.2-0.1-0.6-0.1-0.8,0l-0.7,0.4c-0.2,0.1-0.5,0.4-0.6,0.6c-0.1,0.1-0.3,0.4-0.4,0.6l-0.2,0.6l-0.2,1.1l-0.4,0.4l-0.2,1l-0.6,0.2
			l-0.9,1.5c-0.1,0.2-0.4,0.2-0.6,0.2l-1.5-0.7c-0.2,0-1.5-1.2-1.7-1.4l-1.8-0.3c-0.2-0.1-0.6-0.2-0.8-0.4l-1.6-1.9
			c-0.2-0.1-0.7-0.3-0.9-0.5l-1.4-1.4c-0.1-0.2,0-0.6,0-0.8l-1.6-5.6c0-0.2-0.2-0.5-0.4-0.6l-2.9-2.2c-0.2-0.1-0.4-0.4-0.6-0.5
			l-1.8-1.8c-0.1-0.2-0.4-0.4-0.5-0.6l-0.6-1c-0.1-0.2-0.4-0.4-0.6-0.5l-0.8-0.5c-0.2-0.1-0.4-0.3-0.5-0.5l-0.5-1
			c-0.1-0.2-0.3-0.4-0.5-0.6l-0.7-0.5v47.7h60.3v-1.4L376.5,310.3z"/>
		<path d="M394.3,227.5c-0.6,0-1.8,0-1.8,0h-32.9c0,0,0,0.1,0,0.1l-0.2,15.2c0,0.2,0.2,0,0.4,0h0.1c0.2,0,0.3-0.2,0.5-0.1l1,0.9
			c0.2,0.1,0.5,0.5,0.7,0.5c0.2-0.1,0.4-0.4,0.6-0.3l0.2,0.1c0.2,0.1,0.6,0.3,0.7,0.2c0.1-0.2,0.4-0.5,0.6-0.4l0.5,0.3
			c0.2,0.1,0.3,0.3,0.4,0.5l0,0.4c0,0.2,0.1,0.3,0.3,0.3l0.6,0.2c0.2,0,0.6-0.1,0.8,0l0.4,0.1l0.3,0.3c0.2,0.1,0.4,0.3,0.6,0.3
			l0.5-0.2c0.2,0,0.5-0.1,0.6,0l0.3,0.1c0.2,0.1,0.6,0.5,0.7,0.4l0.4-0.3c0.1-0.1,0.4-0.4,0.6-0.4l0.6,0.1c0.2,0,0.5-0.1,0.5,0.1
			l0,0.2c0,0.2,0,0.5,0.2,0.5l0.3,0c0.2,0.1,0.5,0.3,0.5,0.5c0,0,0,0.6,0.1,0.6c0.2,0,0.7,0.1,0.9,0l0.8-0.7c0.2-0.1,0.5-0.1,0.6,0
			c0,0.2,0.2,0.3,0.4,0.3c0.2,0,0.6,0.1,0.7,0.3c0.1,0.2,0.1,0.3,0.3,0.4l0.8-0.4c0.2-0.3,0.6-0.4,0.6-0.2l0.1,0.3
			c0,0.2-0.1,0.6,0,0.8c0.1,0.2,0.5,0.4,0.6,0.2l0.2-0.5c0.1-0.2,0.2-0.6,0.4-0.7l0-0.5l0.9,0c0.2-0.1,0.2,0.5,0.4,0.6l0.5,0
			c0.2,0.1,0.2-0.1,0.4,0c0,0-0.1-0.9,0.2-0.9c0.3,0,0.8,1,0.8,1c0.2,0.1,0.6,0.3,0.7,0.4l0.2,0.1c0.1,0.1-0.1,0.4,0.2,0.4
			c0.3,0,0.3-0.3,0.3-0.3c0-0.2,0.1-0.3,0.2-0.3c0.2,0,0.5,0.1,0.6,0c0.1-0.1,0.3-0.5,0.5-0.6l0.7-0.3c0.2-0.1,0.4-0.3,0.6-0.2
			l0.3,0.3c0.2,0.1,0.5,0.2,0.5,0.1c0-0.1,0.1-0.7,0.3-0.8l0.4-0.2c0.2-0.1,0.4-0.1,0.6,0.1c0.1,0.1,0.4,0.3,0.6,0.3l0.6,0
			c0.2,0,0.5-0.1,0.6-0.3l0.2-0.2c0.1-0.2,0.4-0.2,0.6-0.2l1,0.4c0.2,0.1,0.5,0.3,0.6,0.4l0.2,0.3c0.1,0.2,0.4,0.3,0.7,0.4l2,0.5
			c0.2,0.1,0.5,0.2,0.6,0.4l0,0.1c0.2,0.2,0.4,0.2,0.6,0.2l0.6-0.2c0.2,0,0.5-0.1,0.8,0l0.2,0c0.2,0.1,0.4,0.3,0.4,0.5l0,3.4
			c0,0.2,0.2,1.5,0.2,1.7l0.6,7.2c0,0.2,1,0.4,1.1,0.5l0.4,0.9c0.2,0.1,0.1,0.9,0.2,1.1c0.1,0.2,0.5,0.3,0.5,0.5l0,0.1
			c0,0.2,0.1,0.5,0.3,0.6l0.2,0.1c0.2,0.1,0.3,0.3,0.3,0.4c0,0.1,0.1,0.3,0.2,0.4l0.2,0.2c0.2,0.2,0.2,0.4,0.2,0.5
			c-0.1,0.1,0,0.3,0.1,0.5l0.2,0.3c0.1,0.2,0.3,0.3,0.3,0.3c0.1,0,0.2,0,0.2,0c0.1,0,0.1,0.2,0,0.4l0,0c0,0.2,0,0.7-0.1,0.7
			c-0.1,0.1-0.2,0.2-0.1,0.3c0.1,0.1,0.1,0.3,0.1,0.5c-0.1,0.1-0.2,0.4-0.2,0.6c0,0.2-0.2,0.4-0.3,0.6l-0.6,1.3
			c-0.1,0.2,0.2,0.8,0.3,1c0,0-0.2,0.4-0.2,0.6l0.3,0.4c-0.1,0.2,0.2,1.3,0.2,1.3c0,0.2-0.2,0.5-0.2,0.7c0,0.2-0.4,0.8-0.5,0.9
			c-0.1,0.2-0.4,0.8-0.3,1.2c0.1,0.3,0.4,0.3,0.4,0.3l-0.1,0.1c-0.1,0.2,0.2,0.5,0.2,0.5c0.2,0.2-1.1,0.2-1.1,0.2
			c-0.2,0-0.8,0.3-1,0.4l-0.7,0.1c-0.2,0.1-0.5,0.8-0.7,0.9l-1,0.1l-0.9,1.1c-0.2,0.1-0.6,0.5-0.7,0.1c-0.2-0.4,0.6-0.7,0.6-0.8
			c0.1-0.1,0.7-0.3,0.6-0.6c-0.2-0.2-0.7-0.2-0.7-0.2c-0.3,0.1-1.4,0.6-1.5,0.3l0-0.6c0-0.2,0.7-0.9,0.5-1.1c-0.2-0.2-0.4,0-0.8,0.6
			c-0.4,0.5-1-0.2-0.9,0.2c0,0.2,0.3,0.4,0.3,0.6c0,0.3-0.4,0.6-0.3,0.9c0,0.2,0.3,0.1,0.6,0.3c0.4,0.4,0.8,0.9,0.8,0.9
			c0,0.2,0.3,0.4,0.2,0.6c0,0-0.8,0.7-2.5,2.2c-1.7,1.5-2.5,2.1-2.5,2.1l-2.3,1.4c0,0-2.8,1.9-3,1.6c-0.2-0.3,4.5-3.1,4.4-3.3
			c-0.1-0.2-0.7,0.1-0.7,0.1l-0.9,0.7c0,0-0.6,0.4-0.9,0.5c-0.2,0-0.4,0.5-0.5,0.4c-0.1,0-0.2,0-0.2,0.1c0,0.1-0.1,0.1-0.2,0
			c0,0-0.3,0-0.2-0.2c0.1-0.6,0.4-1.1,0.3-1.2c-0.2-0.1-1.1,0.9-1.1,0.9l-0.5,0.5l-0.3,0.2c0,0-1-1.2-1.3-0.8
			c-0.4,0.3,0.4,0.8,0.4,1c0,0.2,1.1,0.6,1,0.7c-0.1,0.1,0.4,0.8,0.2,0.9l-0.2,0.6c-0.2,0-0.6,0.4-0.7,0.5c-0.1,0.1-1.2,1.5-1.4,1.7
			l-0.6,0.4c-0.2,0.1-0.2,0.4-0.3,0.5c-0.7,0.6-1.2,2-1.2,2c-0.2,0.1-0.3,0.2-0.2,0.4c0,0-0.8,1.5-1,1.9c-0.2,0.4-0.4,1.9-0.5,2
			c0,0.1,0,0.3,0.2,0.3c0.1,0.1,0.2,0.9,0.2,1.1l0.5,2.2c0,0.3,0.2,0.7,0.2,0.8v0c0,0,0,0,0,0c0,0.5,0.1,1,0.2,1.6l3.5,4.5h8.1v-0.1
			c0.6,0,1.2,0,1.8,0c20.1,0,36.3-18.9,36.3-42.2C430.7,246.4,414.4,227.5,394.3,227.5z"/>
	</g>
	<g>
		<path d="M455.5,281.6h-6.6v-19.9h-5.5v-5.6H461v5.6h-5.5V281.6z"/>
		<path d="M471.8,261.7v4.3h7.5v5.6h-7.5v4.4h7.9v5.6h-14.5v-25.6h14.5v5.6H471.8z"/>
		<path d="M482.7,256.1h8.2l3.9,6.6l3.9-6.6h8.2l-8.2,11.9l9.5,13.7h-8l-5.4-8.3l-5.9,8.3h-8l10-13.7L482.7,256.1z"/>
		<path d="M517.2,277.2l-1.7,4.4h-7.1l9.8-25.6h7.3l9.6,25.6H528l-1.7-4.4H517.2z M521.8,264L521.8,264l-2.8,8.1h5.5L521.8,264z"/>
		<path d="M551.2,262.6c-1.2-1-2.8-1.7-4.4-1.7c-1.2,0-2.9,0.7-2.9,2.1c0,1.5,1.8,2.1,2.9,2.4l1.7,0.5c3.6,1.1,6.3,2.8,6.3,7
			c0,2.5-0.6,5.2-2.7,6.9c-2,1.7-4.7,2.4-7.2,2.4c-3.2,0-6.4-1.1-9-2.9l2.8-5.4c1.7,1.5,3.6,2.6,5.9,2.6c1.6,0,3.2-0.8,3.2-2.6
			c0-1.9-2.6-2.5-4-2.9c-4.2-1.2-6.9-2.3-6.9-7.2c0-5.2,3.7-8.6,8.8-8.6c2.6,0,5.7,0.8,8,2.1L551.2,262.6z"/>
		<path d="M569.7,256.1h9.4c7.1,0,13,5.6,13,12.8c0,7.2-5.9,12.8-13,12.8h-9.4V256.1z M576.3,276h1.5c4,0,7.4-2.2,7.4-7.1
			c0-4.6-3-7.1-7.3-7.1h-1.6V276z"/>
		<path d="M602.3,281.6h-6.6v-25.6h6.6V281.6z"/>
		<path d="M621.2,262.6c-1.2-1-2.8-1.7-4.4-1.7c-1.2,0-2.8,0.7-2.8,2.1c0,1.5,1.8,2.1,2.9,2.4l1.7,0.5c3.6,1.1,6.3,2.8,6.3,7
			c0,2.5-0.6,5.2-2.6,6.9c-2,1.7-4.7,2.4-7.3,2.4c-3.2,0-6.4-1.1-9-2.9l2.8-5.4c1.6,1.5,3.6,2.6,5.9,2.6c1.6,0,3.2-0.8,3.2-2.6
			c0-1.9-2.6-2.5-4-2.9c-4.2-1.2-6.9-2.3-6.9-7.2c0-5.2,3.7-8.6,8.8-8.6c2.6,0,5.7,0.8,8,2.1L621.2,262.6z"/>
		<path d="M628.3,256.1h10.2c5.5,0,9.3,2.5,9.3,8.4c0,6-3.2,8.7-9,8.7H635v8.5h-6.6V256.1z M635,267.8h1.1c2.4,0,4.8,0,4.8-3.1
			c0-3.2-2.2-3.2-4.8-3.2H635V267.8z"/>
		<path d="M678.7,268.4c0,8.3-5.9,14.1-14.1,14.1c-8.2,0-14.1-5.8-14.1-14.1c0-7.7,6.8-13.1,14.1-13.1
			C671.9,255.2,678.7,260.6,678.7,268.4z M657.4,268.4c0,4.4,3.3,7.6,7.2,7.6c4,0,7.2-3.2,7.2-7.6c0-3.5-3.3-6.7-7.2-6.7
			C660.6,261.7,657.4,264.9,657.4,268.4z"/>
		<path d="M695.2,262.6c-1.2-1-2.8-1.7-4.4-1.7c-1.2,0-2.8,0.7-2.8,2.1c0,1.5,1.8,2.1,2.9,2.4l1.7,0.5c3.6,1.1,6.3,2.8,6.3,7
			c0,2.5-0.6,5.2-2.6,6.9c-2,1.7-4.7,2.4-7.2,2.4c-3.2,0-6.4-1.1-9-2.9l2.9-5.4c1.6,1.5,3.6,2.6,5.9,2.6c1.6,0,3.2-0.8,3.2-2.6
			c0-1.9-2.6-2.5-4-2.9c-4.2-1.2-6.9-2.3-6.9-7.2c0-5.2,3.7-8.6,8.8-8.6c2.6,0,5.7,0.8,8,2.1L695.2,262.6z"/>
		<path d="M708.9,277.2l-1.8,4.4H700l9.8-25.6h7.3l9.6,25.6h-7.1l-1.6-4.4H708.9z M713.5,264L713.5,264l-2.8,8.1h5.5L713.5,264z"/>
		<path d="M735.8,276h8v5.6h-14.6v-25.6h6.6V276z"/>
		<path d="M769.9,262.6c-1.2-1-2.8-1.7-4.4-1.7c-1.2,0-2.8,0.7-2.8,2.1c0,1.5,1.8,2.1,2.9,2.4l1.7,0.5c3.6,1.1,6.3,2.8,6.3,7
			c0,2.5-0.6,5.2-2.7,6.9c-2,1.7-4.7,2.4-7.2,2.4c-3.2,0-6.4-1.1-9-2.9l2.8-5.4c1.7,1.5,3.6,2.6,5.9,2.6c1.6,0,3.2-0.8,3.2-2.6
			c0-1.9-2.6-2.5-4-2.9c-4.2-1.2-6.9-2.3-6.9-7.2c0-5.2,3.7-8.6,8.8-8.6c2.6,0,5.7,0.8,8,2.1L769.9,262.6z"/>
		<path d="M773.2,256.1h8l4.8,6.9l4.8-6.9h8l-9.4,13.3v12.3h-6.6v-12.3L773.2,256.1z"/>
		<path d="M812.1,262.6c-1.2-1-2.8-1.7-4.4-1.7c-1.2,0-2.8,0.7-2.8,2.1c0,1.5,1.8,2.1,2.9,2.4l1.7,0.5c3.6,1.1,6.3,2.8,6.3,7
			c0,2.5-0.6,5.2-2.6,6.9c-2,1.7-4.7,2.4-7.2,2.4c-3.2,0-6.4-1.1-9-2.9l2.9-5.4c1.6,1.5,3.6,2.6,5.9,2.6c1.6,0,3.2-0.8,3.2-2.6
			c0-1.9-2.6-2.5-4-2.9c-4.2-1.2-6.9-2.3-6.9-7.2c0-5.2,3.7-8.6,8.8-8.6c2.6,0,5.7,0.8,8,2.1L812.1,262.6z"/>
		<path d="M829.1,281.6h-6.6v-19.9H817v-5.6h17.6v5.6h-5.5V281.6z"/>
		<path d="M843.9,261.7v4.3h7.5v5.6h-7.5v4.4h7.9v5.6h-14.5v-25.6h14.5v5.6H843.9z"/>
		<path d="M859.6,256.1h6.5l5.2,13.7l5.5-13.7h6.6l3.9,25.6h-6.6l-1.9-14.7h-0.1l-6.1,14.7h-2.7l-5.9-14.7H864l-2.1,14.7h-6.6
			L859.6,256.1z"/>
		<path d="M905,262.6c-1.2-1-2.8-1.7-4.4-1.7c-1.2,0-2.8,0.7-2.8,2.1c0,1.5,1.8,2.1,2.9,2.4l1.7,0.5c3.6,1.1,6.3,2.8,6.3,7
			c0,2.5-0.6,5.2-2.6,6.9c-2,1.7-4.7,2.4-7.3,2.4c-3.2,0-6.4-1.1-9-2.9l2.8-5.4c1.7,1.5,3.6,2.6,5.9,2.6c1.6,0,3.2-0.8,3.2-2.6
			c0-1.9-2.6-2.5-4-2.9c-4.2-1.2-6.9-2.3-6.9-7.2c0-5.2,3.7-8.6,8.8-8.6c2.6,0,5.7,0.8,8,2.1L905,262.6z"/>
	</g>
</g>
</svg>
